HIERARCHY
ROOT SpineBase
{
  OFFSET 0.000000 0.000000 0.000000
  CHANNELS 6 Xposition Yposition Zposition Zrotation Xrotation Yrotation
  JOINT SpineMid
  {
    OFFSET -0.000000 32.046067 0.000000
    CHANNELS 3 Zrotation Xrotation Yrotation
    JOINT SpineShoulder
    {
      OFFSET 0.153398 23.794771 -0.763641
      CHANNELS 3 Zrotation Xrotation Yrotation
      JOINT Neck
      {
        OFFSET 0.091735 7.867165 -0.578697
        CHANNELS 3 Zrotation Xrotation Yrotation
        JOINT Head
        {
          OFFSET -5.441220 13.468380 0.556522
          CHANNELS 3 Zrotation Xrotation Yrotation
          End Site
          {
            OFFSET 0 0 0
          }
        }
      }
      JOINT ShoulderLeft
      {
        OFFSET -16.104586 -4.796649 8.852335
        CHANNELS 3 Zrotation Xrotation Yrotation
        JOINT ElbowLeft
        {
          OFFSET -4.888783 -26.583080 5.753009
          CHANNELS 3 Zrotation Xrotation Yrotation
          JOINT WristLeft
          {
            OFFSET -1.134642 -25.111458 -1.933245
            CHANNELS 3 Zrotation Xrotation Yrotation
            JOINT HandLeft
            {
              OFFSET -0.141194 -6.154075 0.354018
              CHANNELS 3 Zrotation Xrotation Yrotation
              JOINT HandTipLeft
              {
                OFFSET 0.578617 -8.015798 0.695816
                CHANNELS 3 Zrotation Xrotation Yrotation
                End Site
                {
                  OFFSET 0 0 0
                }
              }
              JOINT ThumbLeft
              {
                OFFSET 4.309449 3.540550 -0.562022
                CHANNELS 3 Zrotation Xrotation Yrotation
                End Site
                {
                  OFFSET 0 0 0
                }
              }
            }
          }
        }
      }
      JOINT ShoulderRight
      {
        OFFSET 11.648251 -4.727965 -8.319518
        CHANNELS 3 Zrotation Xrotation Yrotation
        JOINT ElbowRight
        {
          OFFSET 8.499138 -26.710446 -2.211181
          CHANNELS 3 Zrotation Xrotation Yrotation
          JOINT WristRight
          {
            OFFSET 2.283745 -22.183004 -5.247721
            CHANNELS 3 Zrotation Xrotation Yrotation
            JOINT HandRight
            {
              OFFSET 0.773697 -7.546109 -0.181182
              CHANNELS 3 Zrotation Xrotation Yrotation
              JOINT HandTipRight
              {
                OFFSET -0.100042 -8.123362 0.467667
                CHANNELS 3 Zrotation Xrotation Yrotation
                End Site
                {
                  OFFSET 0 0 0
                }
              }
              JOINT ThumbRight
              {
                OFFSET 3.365393 0.167578 -0.441047
                CHANNELS 3 Zrotation Xrotation Yrotation
                End Site
                {
                  OFFSET 0 0 0
                }
              }
            }
          }
        }
      }
    }
  }
  JOINT HipLeft
  {
    OFFSET -6.422526 -0.408909 -0.424624
    CHANNELS 3 Zrotation Xrotation Yrotation
    JOINT KneeLeft
    {
      OFFSET 0.393910 -36.073797 6.458446
      CHANNELS 3 Zrotation Xrotation Yrotation
      JOINT AnkleLeft
      {
        OFFSET 6.207460 -38.238282 12.994236
        CHANNELS 3 Zrotation Xrotation Yrotation
        JOINT FootLeft
        {
          OFFSET -3.553322 -7.366515 -6.671646
          CHANNELS 3 Zrotation Xrotation Yrotation
          End Site
          {
            OFFSET 0 0 0
          }
        }
      }
    }
  }
  JOINT HipRight
  {
    OFFSET 6.915228 2.070288 -6.628355
    CHANNELS 3 Zrotation Xrotation Yrotation
    JOINT KneeRight
    {
      OFFSET 5.488534 -36.986556 -1.585061
      CHANNELS 3 Zrotation Xrotation Yrotation
      JOINT AnkleRight
      {
        OFFSET 5.931063 -36.222794 9.138802
        CHANNELS 3 Zrotation Xrotation Yrotation
        JOINT FootRight
        {
          OFFSET -0.723410 -8.433674 -5.114430
          CHANNELS 3 Zrotation Xrotation Yrotation
          End Site
          {
            OFFSET 0 0 0
          }
        }
      }
    }
  }
}
MOTION
Frames: 10
Frame Time: 0.033333
-19.476575 83.735690 326.054597 4.727755 -3.149172 16.281404 0.498036 -0.281174 -15.969370 0.341800 -0.234515 0.265277 3.801336 -0.083709 -2.342284 0.000000 0.000000 0.000000 -13.165834 -15.433791 0.772601 146.141145 41.489660 -120.707744 50.992668 25.293055 110.728458 -23.530683 56.124253 -66.040800 0.000000 0.000000 0.000000 0.000000 0.000000 0.000000 -43.256067 17.104285 15.729733 -109.514818 -9.545796 -14.892499 -8.403907 -20.801742 -138.184152 -56.722028 -50.378176 177.711751 0.000000 0.000000 0.000000 0.000000 0.000000 0.000000 -8.878712 -0.006359 -16.554746 -0.506798 5.495467 -0.499581 -0.569741 -13.584423 13.179355 0.000000 0.000000 0.000000 -9.901613 5.041861 -15.386656 6.173942 0.997557 -0.169189 -3.245654 -4.642068 2.285933 0.000000 0.000000 0.000000
-19.488064 82.493989 326.608270 5.639982 -4.392919 18.820246 0.573143 -0.415216 -18.385091 0.463970 -0.415134 0.329680 5.286040 -0.968027 -3.481701 0.000000 0.000000 0.000000 -11.914082 -12.696587 1.505318 145.172017 41.367150 -121.852021 40.470026 25.318659 91.855559 -40.930571 35.436995 -44.057963 0.000000 0.000000 0.000000 0.000000 0.000000 0.000000 -40.098403 18.697937 15.195352 -112.597298 -10.300463 -15.408647 -9.678420 -13.850892 -128.122666 -57.248051 -37.739884 174.293324 0.000000 0.000000 0.000000 0.000000 0.000000 0.000000 -9.421930 2.886418 -18.778313 -0.052437 4.424635 -0.504713 -0.421666 -13.275335 12.916666 0.000000 0.000000 0.000000 -9.635828 6.966365 -17.630994 5.689009 0.785957 -0.165157 -2.945100 -4.718505 2.118001 0.000000 0.000000 0.000000
-19.434346 81.250469 327.375956 6.651392 -5.993330 20.742712 0.678225 -0.646405 -20.132372 0.621177 -0.635602 0.406300 6.121159 -1.456852 -4.692022 0.000000 0.000000 0.000000 -9.400645 -8.688792 2.360804 142.655697 41.737771 -122.930437 33.130360 25.190897 78.895943 -45.169695 23.081039 -38.918416 0.000000 0.000000 0.000000 0.000000 0.000000 0.000000 -36.443142 20.498832 14.312782 -115.634870 -11.380898 -15.223492 -12.824905 -6.464542 -116.425519 -53.710180 -24.940201 171.873414 0.000000 0.000000 0.000000 0.000000 0.000000 0.000000 -9.737632 6.131154 -20.282865 0.132253 3.467917 -0.539824 -0.085566 -12.901928 12.607302 0.000000 0.000000 0.000000 -8.810671 9.373389 -19.226352 3.931114 -0.232171 -0.481724 -1.568850 -3.854997 2.130309 0.000000 0.000000 0.000000
-19.332620 80.210735 328.275692 7.667730 -7.787308 22.120902 0.785883 -0.902420 -21.294855 0.727187 -0.749090 0.473013 6.048724 -1.284757 -5.706204 0.000000 0.000000 0.000000 -7.679126 -5.237007 2.863984 141.161417 41.608245 -124.514522 27.094051 24.666349 67.473102 -32.136563 24.366217 -50.395898 0.000000 0.000000 0.000000 0.000000 0.000000 0.000000 -32.641224 22.114966 13.036375 -118.428343 -12.661492 -14.397719 -16.556082 -0.703854 -104.818384 -48.144577 -15.093062 167.505774 0.000000 0.000000 0.000000 0.000000 0.000000 0.000000 -9.811413 9.500501 -21.185108 0.118377 2.565260 -0.603777 0.348774 -12.629086 12.339326 0.000000 0.000000 0.000000 -7.626767 12.050079 -20.311628 2.280275 -1.024256 -0.703236 -0.617072 -3.214662 2.021489 0.000000 0.000000 0.000000
-19.162594 79.338213 329.129623 8.789435 -9.600556 23.388435 0.911298 -1.297838 -22.295961 0.835956 -0.803966 0.540428 6.405381 -1.002532 -6.789754 0.000000 0.000000 0.000000 -6.883941 -0.971393 2.879660 139.563367 42.313378 -125.049657 23.775376 24.033201 61.768141 -2.411577 36.194399 -96.198558 0.000000 0.000000 0.000000 0.000000 0.000000 0.000000 -29.331600 23.773144 11.694865 -120.864754 -13.776969 -13.187292 -22.389854 4.256534 -98.079283 -41.511782 -9.790013 167.855314 0.000000 0.000000 0.000000 0.000000 0.000000 0.000000 -9.837017 12.823013 -21.933828 -0.039276 1.788130 -0.690541 0.959297 -12.448100 12.021745 0.000000 0.000000 0.000000 -6.496547 14.577262 -21.360920 0.536014 -1.612475 -0.950848 0.158911 -2.596962 2.082274 0.000000 0.000000 0.000000
-18.882005 78.540195 329.815993 9.834760 -11.125571 25.671598 0.784448 -1.504131 -24.308965 0.715832 -0.710909 0.577835 7.397840 -1.106302 -7.756898 0.000000 0.000000 0.000000 -6.960369 2.680770 2.577580 138.762379 43.197651 -124.649741 22.313247 23.834078 60.050008 17.969387 43.450475 170.728997 0.000000 0.000000 0.000000 0.000000 0.000000 0.000000 -25.668713 24.708077 9.974529 -123.487332 -14.970103 -12.056784 -29.822642 11.761740 -73.044530 -31.319986 5.889460 152.084742 0.000000 0.000000 0.000000 0.000000 0.000000 0.000000 -9.524021 15.980980 -23.775735 -0.291559 1.129813 -0.798485 1.955545 -12.507020 11.604461 0.000000 0.000000 0.000000 -5.482925 16.296180 -23.559924 -1.053552 -1.446983 -1.111197 0.771737 -2.055424 2.285398 0.000000 0.000000 0.000000
-18.575321 78.031256 330.272365 10.713346 -12.343558 27.562589 0.587650 -1.773808 -25.940349 0.580763 -0.612785 0.608361 8.621877 -0.638903 -8.531596 0.000000 0.000000 0.000000 -7.625170 6.121223 2.182136 138.072282 44.418042 -123.356175 22.029423 24.349266 60.615886 32.112720 45.446017 92.068247 0.000000 0.000000 0.000000 0.000000 0.000000 0.000000 -23.069085 25.338850 8.614893 -125.231693 -15.984971 -10.922477 -38.966928 16.006895 -11.531152 -3.036139 24.785214 90.043993 0.000000 0.000000 0.000000 0.000000 0.000000 0.000000 -9.129753 18.259591 -25.323995 -0.754085 0.954436 -0.919506 3.058752 -12.809592 11.271034 0.000000 0.000000 0.000000 -4.828907 17.339084 -25.398023 -2.360249 -0.855409 -1.177095 1.282447 -1.737920 2.514775 0.000000 0.000000 0.000000
-18.302610 77.753187 330.461731 11.389447 -13.189698 29.064514 0.319407 -1.979033 -27.224227 0.411869 -0.506468 0.628681 9.956658 0.450293 -9.016594 0.000000 0.000000 0.000000 -8.935036 8.307579 1.955395 138.548346 45.027744 -122.307435 21.141359 22.369748 58.286137 35.185175 50.142855 84.798346 0.000000 0.000000 0.000000 0.000000 0.000000 0.000000 -21.942532 26.203293 8.150753 -126.621917 -16.240619 -10.618231 -39.976446 15.575766 82.783628 21.445471 4.300699 0.737178 0.000000 0.000000 0.000000 0.000000 0.000000 0.000000 -8.774430 19.555966 -26.582667 -1.346767 1.268167 -1.021568 4.085310 -13.112449 10.945319 0.000000 0.000000 0.000000 -4.695397 17.681275 -26.827936 -3.177888 0.081032 -1.112753 1.399605 -1.121252 2.805723 0.000000 0.000000 0.000000
-17.989710 77.764861 330.355801 11.953714 -13.598592 30.547800 0.059723 -2.306168 -28.534152 0.331220 -0.495948 0.656763 11.908663 0.589043 -9.713551 0.000000 0.000000 0.000000 -12.061845 11.078571 1.653917 139.718513 45.979185 -119.208899 20.485798 23.525055 56.957861 21.164386 52.006202 131.565829 0.000000 0.000000 0.000000 0.000000 0.000000 0.000000 -21.132991 26.423147 7.563817 -127.463230 -16.814684 -9.961182 -39.649240 28.776849 159.870666 7.712445 -0.760070 -71.571796 0.000000 0.000000 0.000000 0.000000 0.000000 0.000000 -8.727037 20.268081 -27.878319 -1.675851 1.791249 -1.043325 4.999122 -13.425756 10.616201 0.000000 0.000000 0.000000 -5.312867 17.383420 -28.148763 -3.398674 1.409907 -0.923625 1.569615 -0.438662 2.948047 0.000000 0.000000 0.000000
-17.847233 77.825133 330.408578 12.279831 -14.087082 31.514466 -0.052577 -2.234778 -29.390177 0.237015 -0.431801 0.664789 12.994183 0.391012 -10.129995 0.000000 0.000000 0.000000 -14.823577 15.073235 1.182923 139.825132 48.201322 -114.625261 22.042419 25.239048 62.686525 19.634960 52.256052 145.010271 0.000000 0.000000 0.000000 0.000000 0.000000 0.000000 -20.266534 26.447752 7.057808 -128.487584 -17.328572 -9.998233 -42.418994 37.159220 173.892308 5.877400 7.884493 -79.770913 0.000000 0.000000 0.000000 0.000000 0.000000 0.000000 -8.477825 21.029653 -28.720720 -1.818167 1.995399 -1.046309 5.463923 -13.496688 10.353415 0.000000 0.000000 0.000000 -5.295747 17.402841 -29.065061 -3.748290 2.094775 -0.815808 1.755522 0.241523 2.968639 0.000000 0.000000 0.000000
